{
  "accessors": [
    {
      "bufferView": 2,
      "componentType": 5126,
      "count": 65532,
      "max": [
        33.100254058837891,
        16.825353622436523,
        32.708263397216797
      ],
      "min": [
        0,
        1.0185818672180176,
        0
      ],
      "type": "VEC3"
    },
    {
      "bufferView": 2,
      "byteOffset": 786384,
      "componentType": 5126,
      "count": 65532,
      "max": [
        0.999991774559021,
        0.99971210956573486,
        0.99998724460601807
      ],
      "min": [
        -0.9999539852142334,
        -1,
        -0.99998199939727783
      ],
      "type": "VEC3"
    },
    {
      "bufferView": 3,
      "componentType": 5126,
      "count": 65532,
      "max": [
        0.99996006488800049,
        0.99985945224761963,
        0.99991708993911743,
        1
      ],
      "min": [
        -0.99999338388442993,
        -0.99983614683151245,
        -0.99997138977050781,
        -1
      ],
      "type": "VEC4"
    },
    {
      "bufferView": 3,
      "byteOffset": 1048512,
      "componentType": 5126,
      "count": 65532,
      "max": [
        0.75294119119644165,
        0.75294119119644165,
        0.75294119119644165,
        1
      ],
      "min": [
        0.75294119119644165,
        0.75294119119644165,
        0.75294119119644165,
        1
      ],
      "type": "VEC4"
    },
    {
      "bufferView": 1,
      "componentType": 5126,
      "count": 65532,
      "max": [
        0.99853497743606567,
        0.99877601861953735
      ],
      "min": [
        0.0012209999840706587,
        0.0012240000069141388
      ],
      "type": "VEC2"
    },
    {
      "bufferView": 0,
      "componentType": 5125,
      "count": 352101,
      "max": [
        65531
      ],
      "min": [
        0
      ],
      "type": "SCALAR"
    },
    {
      "bufferView": 2,
      "byteOffset": 1572768,
      "componentType": 5126,
      "count": 26078,
      "max": [
        25.674396514892578,
        16.509920120239258,
        23.131626129150391
      ],
      "min": [
        12.543313980102539,
        0,
        6.7644262313842773
      ],
      "type": "VEC3"
    },
    {
      "bufferView": 2,
      "byteOffset": 1885704,
      "componentType": 5126,
      "count": 26078,
      "max": [
        0.99948334693908691,
        0.76092398166656494,
        0.99991410970687866
      ],
      "min": [
        -0.99971061944961548,
        -0.99999964237213135,
        -0.99841833114624023
      ],
      "type": "VEC3"
    },
    {
      "bufferView": 3,
      "byteOffset": 2097024,
      "componentType": 5126,
      "count": 26078,
      "max": [
        0.87332552671432495,
        0.97588562965393066,
        0.99996739625930786,
        -1
      ],
      "min": [
        -0.99552559852600098,
        -0.9999280571937561,
        -0.999839186668396,
        -1
      ],
      "type": "VEC4"
    },
    {
      "bufferView": 3,
      "byteOffset": 2514272,
      "componentType": 5126,
      "count": 26078,
      "max": [
        0.75294119119644165,
        0.75294119119644165,
        0.75294119119644165,
        1
      ],
      "min": [
        0.75294119119644165,
        0.75294119119644165,
        0.75294119119644165,
        1
      ],
      "type": "VEC4"
    },
    {
      "bufferView": 1,
      "byteOffset": 524256,
      "componentType": 5126,
      "count": 26078,
      "max": [
        0.99877899885177612,
        0.99877601861953735
      ],
      "min": [
        0.0012209999840706587,
        0.13485099375247955
      ],
      "type": "VEC2"
    },
    {
      "bufferView": 0,
      "byteOffset": 1408404,
      "componentType": 5125,
      "count": 138480,
      "max": [
        26077
      ],
      "min": [
        0
      ],
      "type": "SCALAR"
    },
    {
      "bufferView": 2,
      "byteOffset": 2198640,
      "componentType": 5126,
      "count": 92,
      "max": [
        19.749711990356445,
        7.985994815826416,
        22.022153854370117
      ],
      "min": [
        14.179409027099609,
        1.7583160400390625,
        14.020512580871582
      ],
      "type": "VEC3"
    },
    {
      "bufferView": 2,
      "byteOffset": 2199744,
      "componentType": 5126,
      "count": 92,
      "max": [
        0.48684987425804138,
        0.7396581768989563,
        0.93178188800811768
      ],
      "min": [
        -0.95758485794067383,
        -0.24286209046840668,
        -0.96649265289306641
      ],
      "type": "VEC3"
    },
    {
      "bufferView": 3,
      "byteOffset": 2931520,
      "componentType": 5126,
      "count": 92,
      "max": [
        0,
        0,
        0,
        1
      ],
      "min": [
        0,
        0,
        0,
        1
      ],
      "type": "VEC4"
    },
    {
      "bufferView": 3,
      "byteOffset": 2932992,
      "componentType": 5126,
      "count": 92,
      "max": [
        0.75294119119644165,
        0.75294119119644165,
        0.75294119119644165,
        1
      ],
      "min": [
        0.75294119119644165,
        0.75294119119644165,
        0.75294119119644165,
        1
      ],
      "type": "VEC4"
    },
    {
      "bufferView": 0,
      "byteOffset": 1962324,
      "componentType": 5125,
      "count": 246,
      "max": [
        91
      ],
      "min": [
        0
      ],
      "type": "SCALAR"
    }
  ],
  "asset": {
    "extras": {
      "author": "alban (https://sketchfab.com/alban)",
      "license": "CC-BY-4.0 (http://creativecommons.org/licenses/by/4.0/)",
      "source": "https://sketchfab.com/models/b474bdff529f4185b5cf76dcc0f55690",
      "title": "SF bin"
    },
    "generator": "Sketchfab-3.18.6",
    "version": "2.0"
  },
  "bufferViews": [
    {
      "buffer": 0,
      "byteLength": 1963308,
      "byteOffset": 0,
      "name": "floatBufferViews",
      "target": 34963
    },
    {
      "buffer": 0,
      "byteLength": 732880,
      "byteOffset": 1963308,
      "byteStride": 8,
      "name": "floatBufferViews",
      "target": 34962
    },
    {
      "buffer": 0,
      "byteLength": 2200848,
      "byteOffset": 2696188,
      "byteStride": 12,
      "name": "floatBufferViews",
      "target": 34962
    },
    {
      "buffer": 0,
      "byteLength": 2934464,
      "byteOffset": 4897036,
      "byteStride": 16,
      "name": "floatBufferViews",
      "target": 34962
    }
  ],
  "buffers": [
    {
      "byteLength": 7831500,
      "uri": "scene.bin"
    }
  ],
  "extensionsUsed": [
    "KHR_materials_unlit"
  ],
  "images": [
    {
      "uri": "textures/material_0_baseColor.jpeg"
    }
  ],
  "materials": [
    {
      "doubleSided": true,
      "emissiveFactor": [
        0,
        0,
        0
      ],
      "extensions": {
        "KHR_materials_unlit": {}
      },
      "name": "material_0",
      "pbrMetallicRoughness": {
        "baseColorFactor": [
          1,
          1,
          1,
          1
        ],
        "baseColorTexture": {
          "index": 0,
          "texCoord": 0
        },
        "metallicFactor": 0,
        "roughnessFactor": 1
      }
    },
    {
      "doubleSided": true,
      "emissiveFactor": [
        0,
        0,
        0
      ],
      "extensions": {
        "KHR_materials_unlit": {}
      },
      "name": "material_1",
      "pbrMetallicRoughness": {
        "baseColorFactor": [
          0.022202510082558503,
          0.098206143699415507,
          0.0020094771627158377,
          1
        ],
        "metallicFactor": 0,
        "roughnessFactor": 1
      }
    }
  ],
  "meshes": [
    {
      "primitives": [
        {
          "attributes": {
            "COLOR_0": 3,
            "NORMAL": 1,
            "POSITION": 0,
            "TANGENT": 2,
            "TEXCOORD_0": 4
          },
          "indices": 5,
          "material": 0,
          "mode": 4
        }
      ]
    },
    {
      "primitives": [
        {
          "attributes": {
            "COLOR_0": 9,
            "NORMAL": 7,
            "POSITION": 6,
            "TANGENT": 8,
            "TEXCOORD_0": 10
          },
          "indices": 11,
          "material": 0,
          "mode": 4
        }
      ]
    },
    {
      "primitives": [
        {
          "attributes": {
            "COLOR_0": 15,
            "NORMAL": 13,
            "POSITION": 12,
            "TANGENT": 14
          },
          "indices": 16,
          "material": 1,
          "mode": 4
        }
      ]
    }
  ],
  "nodes": [
    {
      "children": [
        1
      ],
      "name": "RootNode (gltf orientation matrix)",
      "rotation": [
        -0.70710678118654746,
        -0,
        -0,
        0.70710678118654757
      ]
    },
    {
      "children": [
        2
      ],
      "matrix": [
        1,
        0,
        0,
        0,
        0,
        -0.012147408910095692,
        -0.99992620944976807,
        0,
        0,
        0.99992620944976807,
        -0.012147408910095692,
        0,
        0,
        3.8280167579650879,
        1.3612258434295654,
        1
      ],
      "name": "RootNode (model correction matrix)"
    },
    {
      "children": [
        3
      ],
      "matrix": [
        1,
        0,
        0,
        0,
        0,
        1,
        0,
        0,
        0,
        0,
        1,
        0,
        -17.716577529907227,
        -6.3356518745422363,
        -17.564430236816406,
        1
      ],
      "name": "mesh.obj.cleaner.materialmerger.gles"
    },
    {
      "children": [
        4,
        5,
        6
      ],
      "name": ""
    },
    {
      "mesh": 0,
      "name": ""
    },
    {
      "mesh": 1,
      "name": ""
    },
    {
      "mesh": 2,
      "name": ""
    }
  ],
  "samplers": [
    {
      "magFilter": 9729,
      "minFilter": 9987,
      "wrapS": 10497,
      "wrapT": 10497
    }
  ],
  "scene": 0,
  "scenes": [
    {
      "name": "OSG_Scene",
      "nodes": [
        0
      ]
    }
  ],
  "textures": [
    {
      "sampler": 0,
      "source": 0
    }
  ]
}

